STARTFONT 2.1
FONT --Rounded-Regular-R-Normal--8-80-72-72-C-80-AMSTRAD-CPM~PLUS
SIZE 8 72 72
FONTBOUNDINGBOX 8 8 0 0
METRICSSET 2
STARTPROPERTIES 17
PIXEL_SIZE 8
RESOLUTION_X 72
RESOLUTION_Y 72
POINT_SIZE 80
FACE_NAME "Rounded Regular 8"
FOUNDRY ""
FAMILY_NAME "Rounded"
WEIGHT_NAME "Regular"
RELATIVE_WEIGHT 50
SLANT "R"
SPACING "C"
SETWIDTH_NAME "Normal"
RELATIVE_SETWIDTH 50
ADD_STYLE_NAME ""
AVERAGE_WIDTH 80
CHARSET_REGISTRY "AMSTRAD"
CHARSET_ENCODING "CPM-PLUS"
ENDPROPERTIES
CHARS 256
STARTCHAR infinity
ENCODING 0
SWIDTH 1000 0
DWIDTH 8 0
BBX 8 8 0 0
VVECTOR 4 8
SWIDTH1 0 -1000
DWIDTH1 0 -8
BITMAP 
00
00
66
DB
DB
DB
66
00
ENDCHAR
STARTCHAR uni2299
ENCODING 1
SWIDTH 1000 0
DWIDTH 8 0
BBX 8 8 0 0
VVECTOR 4 8
SWIDTH1 0 -1000
DWIDTH1 0 -8
BITMAP 
3C
42
5A
C3
C3
7E
3C
00
ENDCHAR
STARTCHAR Gamma
ENCODING 2
SWIDTH 1000 0
DWIDTH 8 0
BBX 8 8 0 0
VVECTOR 4 8
SWIDTH1 0 -1000
DWIDTH1 0 -8
BITMAP 
3C
42
40
C0
C0
C0
C0
00
ENDCHAR
STARTCHAR uni0394
ENCODING 3
SWIDTH 1000 0
DWIDTH 8 0
BBX 8 8 0 0
VVECTOR 4 8
SWIDTH1 0 -1000
DWIDTH1 0 -8
BITMAP 
10
28
44
44
C6
C6
FE
00
ENDCHAR
STARTCHAR circlemultiply
ENCODING 4
SWIDTH 1000 0
DWIDTH 8 0
BBX 8 8 0 0
VVECTOR 4 8
SWIDTH1 0 -1000
DWIDTH1 0 -8
BITMAP 
3C
66
5A
DB
E7
7E
3C
00
ENDCHAR
STARTCHAR multiply
ENCODING 5
SWIDTH 1000 0
DWIDTH 8 0
BBX 8 8 0 0
VVECTOR 4 8
SWIDTH1 0 -1000
DWIDTH1 0 -8
BITMAP 
00
00
00
24
18
24
00
00
ENDCHAR
STARTCHAR divide
ENCODING 6
SWIDTH 1000 0
DWIDTH 8 0
BBX 8 8 0 0
VVECTOR 4 8
SWIDTH1 0 -1000
DWIDTH1 0 -8
BITMAP 
00
00
18
00
7E
00
18
00
ENDCHAR
STARTCHAR therefore
ENCODING 7
SWIDTH 1000 0
DWIDTH 8 0
BBX 8 8 0 0
VVECTOR 4 8
SWIDTH1 0 -1000
DWIDTH1 0 -8
BITMAP 
00
00
18
18
00
66
66
00
ENDCHAR
STARTCHAR Pi
ENCODING 8
SWIDTH 1000 0
DWIDTH 8 0
BBX 8 8 0 0
VVECTOR 4 8
SWIDTH1 0 -1000
DWIDTH1 0 -8
BITMAP 
7C
48
48
CC
CC
CC
CC
00
ENDCHAR
STARTCHAR arrowdown
ENCODING 9
SWIDTH 1000 0
DWIDTH 8 0
BBX 8 8 0 0
VVECTOR 4 8
SWIDTH1 0 -1000
DWIDTH1 0 -8
BITMAP 
00
10
10
10
7C
38
10
00
ENDCHAR
STARTCHAR Sigma
ENCODING 10
SWIDTH 1000 0
DWIDTH 8 0
BBX 8 8 0 0
VVECTOR 4 8
SWIDTH1 0 -1000
DWIDTH1 0 -8
BITMAP 
3C
42
20
30
60
C6
7C
00
ENDCHAR
STARTCHAR arrowleft
ENCODING 11
SWIDTH 1000 0
DWIDTH 8 0
BBX 8 8 0 0
VVECTOR 4 8
SWIDTH1 0 -1000
DWIDTH1 0 -8
BITMAP 
00
10
30
7E
30
10
00
00
ENDCHAR
STARTCHAR arrowright
ENCODING 12
SWIDTH 1000 0
DWIDTH 8 0
BBX 8 8 0 0
VVECTOR 4 8
SWIDTH1 0 -1000
DWIDTH1 0 -8
BITMAP 
00
08
0C
7E
0C
08
00
00
ENDCHAR
STARTCHAR plusminus
ENCODING 13
SWIDTH 1000 0
DWIDTH 8 0
BBX 8 8 0 0
VVECTOR 4 8
SWIDTH1 0 -1000
DWIDTH1 0 -8
BITMAP 
00
18
18
7E
18
18
7E
00
ENDCHAR
STARTCHAR arrowboth
ENCODING 14
SWIDTH 1000 0
DWIDTH 8 0
BBX 8 8 0 0
VVECTOR 4 8
SWIDTH1 0 -1000
DWIDTH1 0 -8
BITMAP 
00
24
66
FF
66
24
00
00
ENDCHAR
STARTCHAR uni03A9
ENCODING 15
SWIDTH 1000 0
DWIDTH 8 0
BBX 8 8 0 0
VVECTOR 4 8
SWIDTH1 0 -1000
DWIDTH1 0 -8
BITMAP 
38
44
44
C6
C6
6C
EE
00
ENDCHAR
STARTCHAR alpha
ENCODING 16
SWIDTH 1000 0
DWIDTH 8 0
BBX 8 8 0 0
VVECTOR 4 8
SWIDTH1 0 -1000
DWIDTH1 0 -8
BITMAP 
00
00
21
52
CC
DE
73
00
ENDCHAR
STARTCHAR beta
ENCODING 17
SWIDTH 1000 0
DWIDTH 8 0
BBX 8 8 0 0
VVECTOR 4 8
SWIDTH1 0 -1000
DWIDTH1 0 -8
BITMAP 
38
44
44
7C
C6
C6
F8
C0
ENDCHAR
STARTCHAR gamma
ENCODING 18
SWIDTH 1000 0
DWIDTH 8 0
BBX 8 8 0 0
VVECTOR 4 8
SWIDTH1 0 -1000
DWIDTH1 0 -8
BITMAP 
00
82
44
28
28
30
30
00
ENDCHAR
STARTCHAR delta
ENCODING 19
SWIDTH 1000 0
DWIDTH 8 0
BBX 8 8 0 0
VVECTOR 4 8
SWIDTH1 0 -1000
DWIDTH1 0 -8
BITMAP 
1C
20
18
24
66
66
3C
00
ENDCHAR
STARTCHAR epsilon
ENCODING 20
SWIDTH 1000 0
DWIDTH 8 0
BBX 8 8 0 0
VVECTOR 4 8
SWIDTH1 0 -1000
DWIDTH1 0 -8
BITMAP 
00
00
1E
20
3C
30
1E
00
ENDCHAR
STARTCHAR zeta
ENCODING 21
SWIDTH 1000 0
DWIDTH 8 0
BBX 8 8 0 0
VVECTOR 4 8
SWIDTH1 0 -1000
DWIDTH1 0 -8
BITMAP 
38
44
44
FE
C6
6C
38
00
ENDCHAR
STARTCHAR eta
ENCODING 22
SWIDTH 1000 0
DWIDTH 8 0
BBX 8 8 0 0
VVECTOR 4 8
SWIDTH1 0 -1000
DWIDTH1 0 -8
BITMAP 
80
40
20
10
38
6C
C6
00
ENDCHAR
STARTCHAR theta
ENCODING 23
SWIDTH 1000 0
DWIDTH 8 0
BBX 8 8 0 0
VVECTOR 4 8
SWIDTH1 0 -1000
DWIDTH1 0 -8
BITMAP 
00
00
44
C6
C6
FE
FC
C0
ENDCHAR
STARTCHAR lambda
ENCODING 24
SWIDTH 1000 0
DWIDTH 8 0
BBX 8 8 0 0
VVECTOR 4 8
SWIDTH1 0 -1000
DWIDTH1 0 -8
BITMAP 
00
00
7C
48
CC
CC
CC
00
ENDCHAR
STARTCHAR uni03BC
ENCODING 25
SWIDTH 1000 0
DWIDTH 8 0
BBX 8 8 0 0
VVECTOR 4 8
SWIDTH1 0 -1000
DWIDTH1 0 -8
BITMAP 
00
00
3C
46
C6
FC
C0
40
ENDCHAR
STARTCHAR pi
ENCODING 26
SWIDTH 1000 0
DWIDTH 8 0
BBX 8 8 0 0
VVECTOR 4 8
SWIDTH1 0 -1000
DWIDTH1 0 -8
BITMAP 
00
00
7E
CC
CC
FC
78
00
ENDCHAR
STARTCHAR rho
ENCODING 27
SWIDTH 1000 0
DWIDTH 8 0
BBX 8 8 0 0
VVECTOR 4 8
SWIDTH1 0 -1000
DWIDTH1 0 -8
BITMAP 
00
00
7E
08
18
18
18
00
ENDCHAR
STARTCHAR sigma
ENCODING 28
SWIDTH 1000 0
DWIDTH 8 0
BBX 8 8 0 0
VVECTOR 4 8
SWIDTH1 0 -1000
DWIDTH1 0 -8
BITMAP 
10
7C
D6
D6
FE
7C
10
00
ENDCHAR
STARTCHAR tau
ENCODING 29
SWIDTH 1000 0
DWIDTH 8 0
BBX 8 8 0 0
VVECTOR 4 8
SWIDTH1 0 -1000
DWIDTH1 0 -8
BITMAP 
00
C4
28
18
38
6C
C7
00
ENDCHAR
STARTCHAR phi
ENCODING 30
SWIDTH 1000 0
DWIDTH 8 0
BBX 8 8 0 0
VVECTOR 4 8
SWIDTH1 0 -1000
DWIDTH1 0 -8
BITMAP 
00
10
54
D6
FE
7C
10
00
ENDCHAR
STARTCHAR chi
ENCODING 31
SWIDTH 1000 0
DWIDTH 8 0
BBX 8 8 0 0
VVECTOR 4 8
SWIDTH1 0 -1000
DWIDTH1 0 -8
BITMAP 
00
00
6C
C6
D6
D6
6C
00
ENDCHAR
STARTCHAR space
ENCODING 32
SWIDTH 1000 0
DWIDTH 8 0
BBX 8 8 0 0
VVECTOR 4 8
SWIDTH1 0 -1000
DWIDTH1 0 -8
BITMAP 
00
00
00
00
00
00
00
00
ENDCHAR
STARTCHAR exclam
ENCODING 33
SWIDTH 1000 0
DWIDTH 8 0
BBX 8 8 0 0
VVECTOR 4 8
SWIDTH1 0 -1000
DWIDTH1 0 -8
BITMAP 
18
3C
3C
18
00
18
18
00
ENDCHAR
STARTCHAR quotedbl
ENCODING 34
SWIDTH 1000 0
DWIDTH 8 0
BBX 8 8 0 0
VVECTOR 4 8
SWIDTH1 0 -1000
DWIDTH1 0 -8
BITMAP 
24
66
24
00
00
00
00
00
ENDCHAR
STARTCHAR numbersign
ENCODING 35
SWIDTH 1000 0
DWIDTH 8 0
BBX 8 8 0 0
VVECTOR 4 8
SWIDTH1 0 -1000
DWIDTH1 0 -8
BITMAP 
28
7C
28
6C
FE
FE
6C
00
ENDCHAR
STARTCHAR dollar
ENCODING 36
SWIDTH 1000 0
DWIDTH 8 0
BBX 8 8 0 0
VVECTOR 4 8
SWIDTH1 0 -1000
DWIDTH1 0 -8
BITMAP 
08
3E
48
3C
1E
7C
18
00
ENDCHAR
STARTCHAR percent
ENCODING 37
SWIDTH 1000 0
DWIDTH 8 0
BBX 8 8 0 0
VVECTOR 4 8
SWIDTH1 0 -1000
DWIDTH1 0 -8
BITMAP 
42
A4
48
30
64
CA
84
00
ENDCHAR
STARTCHAR ampersand
ENCODING 38
SWIDTH 1000 0
DWIDTH 8 0
BBX 8 8 0 0
VVECTOR 4 8
SWIDTH1 0 -1000
DWIDTH1 0 -8
BITMAP 
20
50
20
50
DA
FC
7A
00
ENDCHAR
STARTCHAR quotesingle
ENCODING 39
SWIDTH 1000 0
DWIDTH 8 0
BBX 8 8 0 0
VVECTOR 4 8
SWIDTH1 0 -1000
DWIDTH1 0 -8
BITMAP 
18
18
30
00
00
00
00
00
ENDCHAR
STARTCHAR parenleft
ENCODING 40
SWIDTH 1000 0
DWIDTH 8 0
BBX 8 8 0 0
VVECTOR 4 8
SWIDTH1 0 -1000
DWIDTH1 0 -8
BITMAP 
04
08
10
30
30
18
0C
00
ENDCHAR
STARTCHAR parenright
ENCODING 41
SWIDTH 1000 0
DWIDTH 8 0
BBX 8 8 0 0
VVECTOR 4 8
SWIDTH1 0 -1000
DWIDTH1 0 -8
BITMAP 
20
10
08
0C
0C
18
30
00
ENDCHAR
STARTCHAR asterisk
ENCODING 42
SWIDTH 1000 0
DWIDTH 8 0
BBX 8 8 0 0
VVECTOR 4 8
SWIDTH1 0 -1000
DWIDTH1 0 -8
BITMAP 
00
54
38
7C
38
54
00
00
ENDCHAR
STARTCHAR plus
ENCODING 43
SWIDTH 1000 0
DWIDTH 8 0
BBX 8 8 0 0
VVECTOR 4 8
SWIDTH1 0 -1000
DWIDTH1 0 -8
BITMAP 
00
10
10
7C
10
10
00
00
ENDCHAR
STARTCHAR comma
ENCODING 44
SWIDTH 1000 0
DWIDTH 8 0
BBX 8 8 0 0
VVECTOR 4 8
SWIDTH1 0 -1000
DWIDTH1 0 -8
BITMAP 
00
00
00
00
18
18
30
00
ENDCHAR
STARTCHAR hyphen
ENCODING 45
SWIDTH 1000 0
DWIDTH 8 0
BBX 8 8 0 0
VVECTOR 4 8
SWIDTH1 0 -1000
DWIDTH1 0 -8
BITMAP 
00
00
00
7C
00
00
00
00
ENDCHAR
STARTCHAR period
ENCODING 46
SWIDTH 1000 0
DWIDTH 8 0
BBX 8 8 0 0
VVECTOR 4 8
SWIDTH1 0 -1000
DWIDTH1 0 -8
BITMAP 
00
00
00
00
10
38
10
00
ENDCHAR
STARTCHAR slash
ENCODING 47
SWIDTH 1000 0
DWIDTH 8 0
BBX 8 8 0 0
VVECTOR 4 8
SWIDTH1 0 -1000
DWIDTH1 0 -8
BITMAP 
02
04
08
30
70
E0
C0
00
ENDCHAR
STARTCHAR uni0030_uniFE00
ENCODING 48
SWIDTH 1000 0
DWIDTH 8 0
BBX 8 8 0 0
VVECTOR 4 8
SWIDTH1 0 -1000
DWIDTH1 0 -8
BITMAP 
38
4C
54
D6
E6
FE
7C
00
ENDCHAR
STARTCHAR one
ENCODING 49
SWIDTH 1000 0
DWIDTH 8 0
BBX 8 8 0 0
VVECTOR 4 8
SWIDTH1 0 -1000
DWIDTH1 0 -8
BITMAP 
10
30
50
18
18
FE
7C
00
ENDCHAR
STARTCHAR two
ENCODING 50
SWIDTH 1000 0
DWIDTH 8 0
BBX 8 8 0 0
VVECTOR 4 8
SWIDTH1 0 -1000
DWIDTH1 0 -8
BITMAP 
3C
46
18
60
C0
FE
7C
00
ENDCHAR
STARTCHAR three
ENCODING 51
SWIDTH 1000 0
DWIDTH 8 0
BBX 8 8 0 0
VVECTOR 4 8
SWIDTH1 0 -1000
DWIDTH1 0 -8
BITMAP 
38
44
1C
06
C6
FE
7C
00
ENDCHAR
STARTCHAR four
ENCODING 52
SWIDTH 1000 0
DWIDTH 8 0
BBX 8 8 0 0
VVECTOR 4 8
SWIDTH1 0 -1000
DWIDTH1 0 -8
BITMAP 
08
18
28
7C
FE
0C
0C
00
ENDCHAR
STARTCHAR five
ENCODING 53
SWIDTH 1000 0
DWIDTH 8 0
BBX 8 8 0 0
VVECTOR 4 8
SWIDTH1 0 -1000
DWIDTH1 0 -8
BITMAP 
7C
40
7C
06
C6
FE
7C
00
ENDCHAR
STARTCHAR six
ENCODING 54
SWIDTH 1000 0
DWIDTH 8 0
BBX 8 8 0 0
VVECTOR 4 8
SWIDTH1 0 -1000
DWIDTH1 0 -8
BITMAP 
38
40
7C
C6
C6
FE
7C
00
ENDCHAR
STARTCHAR seven
ENCODING 55
SWIDTH 1000 0
DWIDTH 8 0
BBX 8 8 0 0
VVECTOR 4 8
SWIDTH1 0 -1000
DWIDTH1 0 -8
BITMAP 
FC
04
08
38
70
E0
C0
00
ENDCHAR
STARTCHAR eight
ENCODING 56
SWIDTH 1000 0
DWIDTH 8 0
BBX 8 8 0 0
VVECTOR 4 8
SWIDTH1 0 -1000
DWIDTH1 0 -8
BITMAP 
38
44
38
44
C6
FE
7C
00
ENDCHAR
STARTCHAR nine
ENCODING 57
SWIDTH 1000 0
DWIDTH 8 0
BBX 8 8 0 0
VVECTOR 4 8
SWIDTH1 0 -1000
DWIDTH1 0 -8
BITMAP 
38
44
44
3C
0C
0C
04
00
ENDCHAR
STARTCHAR colon
ENCODING 58
SWIDTH 1000 0
DWIDTH 8 0
BBX 8 8 0 0
VVECTOR 4 8
SWIDTH1 0 -1000
DWIDTH1 0 -8
BITMAP 
00
10
38
00
38
10
00
00
ENDCHAR
STARTCHAR semicolon
ENCODING 59
SWIDTH 1000 0
DWIDTH 8 0
BBX 8 8 0 0
VVECTOR 4 8
SWIDTH1 0 -1000
DWIDTH1 0 -8
BITMAP 
00
10
38
00
38
18
30
00
ENDCHAR
STARTCHAR less
ENCODING 60
SWIDTH 1000 0
DWIDTH 8 0
BBX 8 8 0 0
VVECTOR 4 8
SWIDTH1 0 -1000
DWIDTH1 0 -8
BITMAP 
00
0F
1C
38
1C
0F
00
00
ENDCHAR
STARTCHAR equal
ENCODING 61
SWIDTH 1000 0
DWIDTH 8 0
BBX 8 8 0 0
VVECTOR 4 8
SWIDTH1 0 -1000
DWIDTH1 0 -8
BITMAP 
00
00
7C
00
7C
00
00
00
ENDCHAR
STARTCHAR greater
ENCODING 62
SWIDTH 1000 0
DWIDTH 8 0
BBX 8 8 0 0
VVECTOR 4 8
SWIDTH1 0 -1000
DWIDTH1 0 -8
BITMAP 
00
78
1C
0E
1C
78
00
00
ENDCHAR
STARTCHAR question
ENCODING 63
SWIDTH 1000 0
DWIDTH 8 0
BBX 8 8 0 0
VVECTOR 4 8
SWIDTH1 0 -1000
DWIDTH1 0 -8
BITMAP 
38
44
04
08
00
08
1C
00
ENDCHAR
STARTCHAR at
ENCODING 64
SWIDTH 1000 0
DWIDTH 8 0
BBX 8 8 0 0
VVECTOR 4 8
SWIDTH1 0 -1000
DWIDTH1 0 -8
BITMAP 
7C
9E
A6
BE
80
FE
7E
00
ENDCHAR
STARTCHAR A
ENCODING 65
SWIDTH 1000 0
DWIDTH 8 0
BBX 8 8 0 0
VVECTOR 4 8
SWIDTH1 0 -1000
DWIDTH1 0 -8
BITMAP 
38
44
7C
C6
C6
C6
C6
00
ENDCHAR
STARTCHAR B
ENCODING 66
SWIDTH 1000 0
DWIDTH 8 0
BBX 8 8 0 0
VVECTOR 4 8
SWIDTH1 0 -1000
DWIDTH1 0 -8
BITMAP 
78
44
FC
C6
C6
FE
FC
00
ENDCHAR
STARTCHAR C
ENCODING 67
SWIDTH 1000 0
DWIDTH 8 0
BBX 8 8 0 0
VVECTOR 4 8
SWIDTH1 0 -1000
DWIDTH1 0 -8
BITMAP 
38
44
40
C0
C6
FE
7C
00
ENDCHAR
STARTCHAR D
ENCODING 68
SWIDTH 1000 0
DWIDTH 8 0
BBX 8 8 0 0
VVECTOR 4 8
SWIDTH1 0 -1000
DWIDTH1 0 -8
BITMAP 
70
48
44
C6
C6
FC
F8
00
ENDCHAR
STARTCHAR E
ENCODING 69
SWIDTH 1000 0
DWIDTH 8 0
BBX 8 8 0 0
VVECTOR 4 8
SWIDTH1 0 -1000
DWIDTH1 0 -8
BITMAP 
7C
40
78
C0
C0
FE
FE
00
ENDCHAR
STARTCHAR F
ENCODING 70
SWIDTH 1000 0
DWIDTH 8 0
BBX 8 8 0 0
VVECTOR 4 8
SWIDTH1 0 -1000
DWIDTH1 0 -8
BITMAP 
7C
40
78
C0
C0
C0
C0
00
ENDCHAR
STARTCHAR G
ENCODING 71
SWIDTH 1000 0
DWIDTH 8 0
BBX 8 8 0 0
VVECTOR 4 8
SWIDTH1 0 -1000
DWIDTH1 0 -8
BITMAP 
38
44
40
CC
C6
FE
7C
00
ENDCHAR
STARTCHAR H
ENCODING 72
SWIDTH 1000 0
DWIDTH 8 0
BBX 8 8 0 0
VVECTOR 4 8
SWIDTH1 0 -1000
DWIDTH1 0 -8
BITMAP 
44
44
7C
C6
C6
C6
C6
00
ENDCHAR
STARTCHAR I
ENCODING 73
SWIDTH 1000 0
DWIDTH 8 0
BBX 8 8 0 0
VVECTOR 4 8
SWIDTH1 0 -1000
DWIDTH1 0 -8
BITMAP 
FE
10
10
30
30
FE
FE
00
ENDCHAR
STARTCHAR J
ENCODING 74
SWIDTH 1000 0
DWIDTH 8 0
BBX 8 8 0 0
VVECTOR 4 8
SWIDTH1 0 -1000
DWIDTH1 0 -8
BITMAP 
3C
04
04
06
C6
FE
7C
00
ENDCHAR
STARTCHAR K
ENCODING 75
SWIDTH 1000 0
DWIDTH 8 0
BBX 8 8 0 0
VVECTOR 4 8
SWIDTH1 0 -1000
DWIDTH1 0 -8
BITMAP 
44
48
50
F0
D8
CC
C6
00
ENDCHAR
STARTCHAR L
ENCODING 76
SWIDTH 1000 0
DWIDTH 8 0
BBX 8 8 0 0
VVECTOR 4 8
SWIDTH1 0 -1000
DWIDTH1 0 -8
BITMAP 
40
40
40
C0
C0
FE
7C
00
ENDCHAR
STARTCHAR M
ENCODING 77
SWIDTH 1000 0
DWIDTH 8 0
BBX 8 8 0 0
VVECTOR 4 8
SWIDTH1 0 -1000
DWIDTH1 0 -8
BITMAP 
6C
54
54
C6
C6
C6
44
00
ENDCHAR
STARTCHAR N
ENCODING 78
SWIDTH 1000 0
DWIDTH 8 0
BBX 8 8 0 0
VVECTOR 4 8
SWIDTH1 0 -1000
DWIDTH1 0 -8
BITMAP 
44
64
54
D6
CE
CE
44
00
ENDCHAR
STARTCHAR O
ENCODING 79
SWIDTH 1000 0
DWIDTH 8 0
BBX 8 8 0 0
VVECTOR 4 8
SWIDTH1 0 -1000
DWIDTH1 0 -8
BITMAP 
38
44
44
C6
C6
FE
7C
00
ENDCHAR
STARTCHAR P
ENCODING 80
SWIDTH 1000 0
DWIDTH 8 0
BBX 8 8 0 0
VVECTOR 4 8
SWIDTH1 0 -1000
DWIDTH1 0 -8
BITMAP 
38
44
78
C0
C0
C0
C0
00
ENDCHAR
STARTCHAR Q
ENCODING 81
SWIDTH 1000 0
DWIDTH 8 0
BBX 8 8 0 0
VVECTOR 4 8
SWIDTH1 0 -1000
DWIDTH1 0 -8
BITMAP 
38
44
44
D6
CE
FE
7C
00
ENDCHAR
STARTCHAR R
ENCODING 82
SWIDTH 1000 0
DWIDTH 8 0
BBX 8 8 0 0
VVECTOR 4 8
SWIDTH1 0 -1000
DWIDTH1 0 -8
BITMAP 
30
48
F0
F0
D8
CC
C6
00
ENDCHAR
STARTCHAR S
ENCODING 83
SWIDTH 1000 0
DWIDTH 8 0
BBX 8 8 0 0
VVECTOR 4 8
SWIDTH1 0 -1000
DWIDTH1 0 -8
BITMAP 
78
80
7C
06
06
FE
7C
00
ENDCHAR
STARTCHAR T
ENCODING 84
SWIDTH 1000 0
DWIDTH 8 0
BBX 8 8 0 0
VVECTOR 4 8
SWIDTH1 0 -1000
DWIDTH1 0 -8
BITMAP 
FE
10
10
30
30
30
30
00
ENDCHAR
STARTCHAR U
ENCODING 85
SWIDTH 1000 0
DWIDTH 8 0
BBX 8 8 0 0
VVECTOR 4 8
SWIDTH1 0 -1000
DWIDTH1 0 -8
BITMAP 
44
44
44
C6
C6
FE
7C
00
ENDCHAR
STARTCHAR V
ENCODING 86
SWIDTH 1000 0
DWIDTH 8 0
BBX 8 8 0 0
VVECTOR 4 8
SWIDTH1 0 -1000
DWIDTH1 0 -8
BITMAP 
44
44
C6
C6
EE
7C
38
00
ENDCHAR
STARTCHAR W
ENCODING 87
SWIDTH 1000 0
DWIDTH 8 0
BBX 8 8 0 0
VVECTOR 4 8
SWIDTH1 0 -1000
DWIDTH1 0 -8
BITMAP 
44
44
44
C6
D6
FE
6C
00
ENDCHAR
STARTCHAR X
ENCODING 88
SWIDTH 1000 0
DWIDTH 8 0
BBX 8 8 0 0
VVECTOR 4 8
SWIDTH1 0 -1000
DWIDTH1 0 -8
BITMAP 
44
28
10
38
6C
C6
44
00
ENDCHAR
STARTCHAR Y
ENCODING 89
SWIDTH 1000 0
DWIDTH 8 0
BBX 8 8 0 0
VVECTOR 4 8
SWIDTH1 0 -1000
DWIDTH1 0 -8
BITMAP 
82
44
28
38
38
38
10
00
ENDCHAR
STARTCHAR Z
ENCODING 90
SWIDTH 1000 0
DWIDTH 8 0
BBX 8 8 0 0
VVECTOR 4 8
SWIDTH1 0 -1000
DWIDTH1 0 -8
BITMAP 
7C
04
08
38
70
FE
7C
00
ENDCHAR
STARTCHAR bracketleft
ENCODING 91
SWIDTH 1000 0
DWIDTH 8 0
BBX 8 8 0 0
VVECTOR 4 8
SWIDTH1 0 -1000
DWIDTH1 0 -8
BITMAP 
04
08
18
18
18
18
0C
00
ENDCHAR
STARTCHAR backslash
ENCODING 92
SWIDTH 1000 0
DWIDTH 8 0
BBX 8 8 0 0
VVECTOR 4 8
SWIDTH1 0 -1000
DWIDTH1 0 -8
BITMAP 
80
40
20
18
1C
0E
06
00
ENDCHAR
STARTCHAR bracketright
ENCODING 93
SWIDTH 1000 0
DWIDTH 8 0
BBX 8 8 0 0
VVECTOR 4 8
SWIDTH1 0 -1000
DWIDTH1 0 -8
BITMAP 
20
10
18
18
18
18
30
00
ENDCHAR
STARTCHAR arrowup
ENCODING 94
SWIDTH 1000 0
DWIDTH 8 0
BBX 8 8 0 0
VVECTOR 4 8
SWIDTH1 0 -1000
DWIDTH1 0 -8
BITMAP 
00
10
38
7C
10
10
10
00
ENDCHAR
STARTCHAR underscore
ENCODING 95
SWIDTH 1000 0
DWIDTH 8 0
BBX 8 8 0 0
VVECTOR 4 8
SWIDTH1 0 -1000
DWIDTH1 0 -8
BITMAP 
00
00
00
00
00
00
00
FF
ENDCHAR
STARTCHAR grave
ENCODING 96
SWIDTH 1000 0
DWIDTH 8 0
BBX 8 8 0 0
VVECTOR 4 8
SWIDTH1 0 -1000
DWIDTH1 0 -8
BITMAP 
30
18
0C
00
00
00
00
00
ENDCHAR
STARTCHAR a
ENCODING 97
SWIDTH 1000 0
DWIDTH 8 0
BBX 8 8 0 0
VVECTOR 4 8
SWIDTH1 0 -1000
DWIDTH1 0 -8
BITMAP 
00
00
7C
C6
C6
FE
7E
00
ENDCHAR
STARTCHAR b
ENCODING 98
SWIDTH 1000 0
DWIDTH 8 0
BBX 8 8 0 0
VVECTOR 4 8
SWIDTH1 0 -1000
DWIDTH1 0 -8
BITMAP 
80
80
FC
C6
C6
FE
7C
00
ENDCHAR
STARTCHAR c
ENCODING 99
SWIDTH 1000 0
DWIDTH 8 0
BBX 8 8 0 0
VVECTOR 4 8
SWIDTH1 0 -1000
DWIDTH1 0 -8
BITMAP 
00
00
7C
C0
C0
FC
78
00
ENDCHAR
STARTCHAR d
ENCODING 100
SWIDTH 1000 0
DWIDTH 8 0
BBX 8 8 0 0
VVECTOR 4 8
SWIDTH1 0 -1000
DWIDTH1 0 -8
BITMAP 
04
04
7C
C6
C6
FE
7C
00
ENDCHAR
STARTCHAR e
ENCODING 101
SWIDTH 1000 0
DWIDTH 8 0
BBX 8 8 0 0
VVECTOR 4 8
SWIDTH1 0 -1000
DWIDTH1 0 -8
BITMAP 
00
00
3C
62
7C
60
3E
00
ENDCHAR
STARTCHAR f
ENCODING 102
SWIDTH 1000 0
DWIDTH 8 0
BBX 8 8 0 0
VVECTOR 4 8
SWIDTH1 0 -1000
DWIDTH1 0 -8
BITMAP 
0C
10
18
30
30
30
30
00
ENDCHAR
STARTCHAR g
ENCODING 103
SWIDTH 1000 0
DWIDTH 8 0
BBX 8 8 0 0
VVECTOR 4 8
SWIDTH1 0 -1000
DWIDTH1 0 -8
BITMAP 
00
00
3C
44
44
3E
06
FC
ENDCHAR
STARTCHAR h
ENCODING 104
SWIDTH 1000 0
DWIDTH 8 0
BBX 8 8 0 0
VVECTOR 4 8
SWIDTH1 0 -1000
DWIDTH1 0 -8
BITMAP 
20
20
7C
7E
66
66
66
00
ENDCHAR
STARTCHAR i
ENCODING 105
SWIDTH 1000 0
DWIDTH 8 0
BBX 8 8 0 0
VVECTOR 4 8
SWIDTH1 0 -1000
DWIDTH1 0 -8
BITMAP 
18
00
18
18
18
18
18
00
ENDCHAR
STARTCHAR j
ENCODING 106
SWIDTH 1000 0
DWIDTH 8 0
BBX 8 8 0 0
VVECTOR 4 8
SWIDTH1 0 -1000
DWIDTH1 0 -8
BITMAP 
04
00
04
04
06
66
7C
38
ENDCHAR
STARTCHAR k
ENCODING 107
SWIDTH 1000 0
DWIDTH 8 0
BBX 8 8 0 0
VVECTOR 4 8
SWIDTH1 0 -1000
DWIDTH1 0 -8
BITMAP 
20
20
24
28
7C
66
63
00
ENDCHAR
STARTCHAR l
ENCODING 108
SWIDTH 1000 0
DWIDTH 8 0
BBX 8 8 0 0
VVECTOR 4 8
SWIDTH1 0 -1000
DWIDTH1 0 -8
BITMAP 
10
10
10
30
30
38
18
00
ENDCHAR
STARTCHAR m
ENCODING 109
SWIDTH 1000 0
DWIDTH 8 0
BBX 8 8 0 0
VVECTOR 4 8
SWIDTH1 0 -1000
DWIDTH1 0 -8
BITMAP 
00
00
6C
D6
D6
D6
D6
00
ENDCHAR
STARTCHAR n
ENCODING 110
SWIDTH 1000 0
DWIDTH 8 0
BBX 8 8 0 0
VVECTOR 4 8
SWIDTH1 0 -1000
DWIDTH1 0 -8
BITMAP 
00
00
FC
C6
C6
C6
C6
00
ENDCHAR
STARTCHAR o
ENCODING 111
SWIDTH 1000 0
DWIDTH 8 0
BBX 8 8 0 0
VVECTOR 4 8
SWIDTH1 0 -1000
DWIDTH1 0 -8
BITMAP 
00
00
3C
66
66
7E
3C
00
ENDCHAR
STARTCHAR p
ENCODING 112
SWIDTH 1000 0
DWIDTH 8 0
BBX 8 8 0 0
VVECTOR 4 8
SWIDTH1 0 -1000
DWIDTH1 0 -8
BITMAP 
00
00
3C
46
C6
FC
C0
40
ENDCHAR
STARTCHAR q
ENCODING 113
SWIDTH 1000 0
DWIDTH 8 0
BBX 8 8 0 0
VVECTOR 4 8
SWIDTH1 0 -1000
DWIDTH1 0 -8
BITMAP 
00
00
70
C8
CC
7C
0D
0E
ENDCHAR
STARTCHAR r
ENCODING 114
SWIDTH 1000 0
DWIDTH 8 0
BBX 8 8 0 0
VVECTOR 4 8
SWIDTH1 0 -1000
DWIDTH1 0 -8
BITMAP 
00
00
3C
62
60
60
60
00
ENDCHAR
STARTCHAR s
ENCODING 115
SWIDTH 1000 0
DWIDTH 8 0
BBX 8 8 0 0
VVECTOR 4 8
SWIDTH1 0 -1000
DWIDTH1 0 -8
BITMAP 
00
00
3C
40
3C
0E
7C
00
ENDCHAR
STARTCHAR t
ENCODING 116
SWIDTH 1000 0
DWIDTH 8 0
BBX 8 8 0 0
VVECTOR 4 8
SWIDTH1 0 -1000
DWIDTH1 0 -8
BITMAP 
20
38
20
60
60
7C
38
00
ENDCHAR
STARTCHAR u
ENCODING 117
SWIDTH 1000 0
DWIDTH 8 0
BBX 8 8 0 0
VVECTOR 4 8
SWIDTH1 0 -1000
DWIDTH1 0 -8
BITMAP 
00
00
44
C6
C6
FE
7C
00
ENDCHAR
STARTCHAR v
ENCODING 118
SWIDTH 1000 0
DWIDTH 8 0
BBX 8 8 0 0
VVECTOR 4 8
SWIDTH1 0 -1000
DWIDTH1 0 -8
BITMAP 
00
00
82
C6
6C
6C
38
00
ENDCHAR
STARTCHAR w
ENCODING 119
SWIDTH 1000 0
DWIDTH 8 0
BBX 8 8 0 0
VVECTOR 4 8
SWIDTH1 0 -1000
DWIDTH1 0 -8
BITMAP 
00
00
44
C6
D6
D6
6C
00
ENDCHAR
STARTCHAR x
ENCODING 120
SWIDTH 1000 0
DWIDTH 8 0
BBX 8 8 0 0
VVECTOR 4 8
SWIDTH1 0 -1000
DWIDTH1 0 -8
BITMAP 
00
00
44
28
38
6C
C6
00
ENDCHAR
STARTCHAR y
ENCODING 121
SWIDTH 1000 0
DWIDTH 8 0
BBX 8 8 0 0
VVECTOR 4 8
SWIDTH1 0 -1000
DWIDTH1 0 -8
BITMAP 
00
00
44
44
44
3E
06
FC
ENDCHAR
STARTCHAR z
ENCODING 122
SWIDTH 1000 0
DWIDTH 8 0
BBX 8 8 0 0
VVECTOR 4 8
SWIDTH1 0 -1000
DWIDTH1 0 -8
BITMAP 
00
00
7C
0C
18
3E
7E
00
ENDCHAR
STARTCHAR braceleft
ENCODING 123
SWIDTH 1000 0
DWIDTH 8 0
BBX 8 8 0 0
VVECTOR 4 8
SWIDTH1 0 -1000
DWIDTH1 0 -8
BITMAP 
04
08
18
70
18
18
0C
00
ENDCHAR
STARTCHAR bar
ENCODING 124
SWIDTH 1000 0
DWIDTH 8 0
BBX 8 8 0 0
VVECTOR 4 8
SWIDTH1 0 -1000
DWIDTH1 0 -8
BITMAP 
18
18
18
18
18
18
18
00
ENDCHAR
STARTCHAR braceright
ENCODING 125
SWIDTH 1000 0
DWIDTH 8 0
BBX 8 8 0 0
VVECTOR 4 8
SWIDTH1 0 -1000
DWIDTH1 0 -8
BITMAP 
20
10
18
0E
18
18
30
00
ENDCHAR
STARTCHAR asciitilde
ENCODING 126
SWIDTH 1000 0
DWIDTH 8 0
BBX 8 8 0 0
VVECTOR 4 8
SWIDTH1 0 -1000
DWIDTH1 0 -8
BITMAP 
32
CC
00
00
00
00
00
00
ENDCHAR
STARTCHAR zero
ENCODING 127
SWIDTH 1000 0
DWIDTH 8 0
BBX 8 8 0 0
VVECTOR 4 8
SWIDTH1 0 -1000
DWIDTH1 0 -8
BITMAP 
38
44
44
C6
C6
FE
7C
00
ENDCHAR
STARTCHAR uni25FE
ENCODING 128
SWIDTH 1000 0
DWIDTH 8 0
BBX 8 8 0 0
VVECTOR 4 8
SWIDTH1 0 -1000
DWIDTH1 0 -8
BITMAP 
00
00
18
3C
3C
18
00
00
ENDCHAR
STARTCHAR SF450000
ENCODING 129
SWIDTH 1000 0
DWIDTH 8 0
BBX 8 8 0 0
VVECTOR 4 8
SWIDTH1 0 -1000
DWIDTH1 0 -8
BITMAP 
18
7E
C3
00
00
E7
3C
00
ENDCHAR
STARTCHAR SF370000
ENCODING 130
SWIDTH 1000 0
DWIDTH 8 0
BBX 8 8 0 0
VVECTOR 4 8
SWIDTH1 0 -1000
DWIDTH1 0 -8
BITMAP 
24
26
62
43
43
62
26
24
ENDCHAR
STARTCHAR SF380000
ENCODING 131
SWIDTH 1000 0
DWIDTH 8 0
BBX 8 8 0 0
VVECTOR 4 8
SWIDTH1 0 -1000
DWIDTH1 0 -8
BITMAP 
24
66
43
60
30
1B
0E
00
ENDCHAR
STARTCHAR SF470000
ENCODING 132
SWIDTH 1000 0
DWIDTH 8 0
BBX 8 8 0 0
VVECTOR 4 8
SWIDTH1 0 -1000
DWIDTH1 0 -8
BITMAP 
00
3C
E7
00
00
C3
7E
18
ENDCHAR
STARTCHAR SF240000
ENCODING 133
SWIDTH 1000 0
DWIDTH 8 0
BBX 8 8 0 0
VVECTOR 4 8
SWIDTH1 0 -1000
DWIDTH1 0 -8
BITMAP 
24
24
66
42
42
66
24
24
ENDCHAR
STARTCHAR SF390000
ENCODING 134
SWIDTH 1000 0
DWIDTH 8 0
BBX 8 8 0 0
VVECTOR 4 8
SWIDTH1 0 -1000
DWIDTH1 0 -8
BITMAP 
00
0E
1B
30
60
43
66
24
ENDCHAR
STARTCHAR SF420000
ENCODING 135
SWIDTH 1000 0
DWIDTH 8 0
BBX 8 8 0 0
VVECTOR 4 8
SWIDTH1 0 -1000
DWIDTH1 0 -8
BITMAP 
24
26
63
40
40
63
26
24
ENDCHAR
STARTCHAR SF200000
ENCODING 136
SWIDTH 1000 0
DWIDTH 8 0
BBX 8 8 0 0
VVECTOR 4 8
SWIDTH1 0 -1000
DWIDTH1 0 -8
BITMAP 
24
64
46
C2
C2
46
64
24
ENDCHAR
STARTCHAR SF260000
ENCODING 137
SWIDTH 1000 0
DWIDTH 8 0
BBX 8 8 0 0
VVECTOR 4 8
SWIDTH1 0 -1000
DWIDTH1 0 -8
BITMAP 
24
66
C2
06
0C
D8
70
00
ENDCHAR
STARTCHAR SF430000
ENCODING 138
SWIDTH 1000 0
DWIDTH 8 0
BBX 8 8 0 0
VVECTOR 4 8
SWIDTH1 0 -1000
DWIDTH1 0 -8
BITMAP 
00
3C
E7
00
00
E7
3C
00
ENDCHAR
STARTCHAR SF400000
ENCODING 139
SWIDTH 1000 0
DWIDTH 8 0
BBX 8 8 0 0
VVECTOR 4 8
SWIDTH1 0 -1000
DWIDTH1 0 -8
BITMAP 
24
66
C3
00
00
E7
3C
00
ENDCHAR
STARTCHAR SF250000
ENCODING 140
SWIDTH 1000 0
DWIDTH 8 0
BBX 8 8 0 0
VVECTOR 4 8
SWIDTH1 0 -1000
DWIDTH1 0 -8
BITMAP 
00
70
D8
0C
06
C2
66
24
ENDCHAR
STARTCHAR SF230000
ENCODING 141
SWIDTH 1000 0
DWIDTH 8 0
BBX 8 8 0 0
VVECTOR 4 8
SWIDTH1 0 -1000
DWIDTH1 0 -8
BITMAP 
24
64
C6
02
02
C6
64
24
ENDCHAR
STARTCHAR SF410000
ENCODING 142
SWIDTH 1000 0
DWIDTH 8 0
BBX 8 8 0 0
VVECTOR 4 8
SWIDTH1 0 -1000
DWIDTH1 0 -8
BITMAP 
00
3C
E7
00
00
C3
66
24
ENDCHAR
STARTCHAR SF440000
ENCODING 143
SWIDTH 1000 0
DWIDTH 8 0
BBX 8 8 0 0
VVECTOR 4 8
SWIDTH1 0 -1000
DWIDTH1 0 -8
BITMAP 
24
66
C3
00
00
C3
66
24
ENDCHAR
STARTCHAR periodcentered
ENCODING 144
SWIDTH 1000 0
DWIDTH 8 0
BBX 8 8 0 0
VVECTOR 4 8
SWIDTH1 0 -1000
DWIDTH1 0 -8
BITMAP 
00
00
18
24
24
18
00
00
ENDCHAR
STARTCHAR uni2575
ENCODING 145
SWIDTH 1000 0
DWIDTH 8 0
BBX 8 8 0 0
VVECTOR 4 8
SWIDTH1 0 -1000
DWIDTH1 0 -8
BITMAP 
18
18
18
3C
3C
18
00
00
ENDCHAR
STARTCHAR uni2576
ENCODING 146
SWIDTH 1000 0
DWIDTH 8 0
BBX 8 8 0 0
VVECTOR 4 8
SWIDTH1 0 -1000
DWIDTH1 0 -8
BITMAP 
00
00
18
3F
3F
18
00
00
ENDCHAR
STARTCHAR SF020000
ENCODING 147
SWIDTH 1000 0
DWIDTH 8 0
BBX 8 8 0 0
VVECTOR 4 8
SWIDTH1 0 -1000
DWIDTH1 0 -8
BITMAP 
18
18
18
3F
3F
18
00
00
ENDCHAR
STARTCHAR uni2577
ENCODING 148
SWIDTH 1000 0
DWIDTH 8 0
BBX 8 8 0 0
VVECTOR 4 8
SWIDTH1 0 -1000
DWIDTH1 0 -8
BITMAP 
00
00
18
3C
3C
18
18
18
ENDCHAR
STARTCHAR SF110000
ENCODING 149
SWIDTH 1000 0
DWIDTH 8 0
BBX 8 8 0 0
VVECTOR 4 8
SWIDTH1 0 -1000
DWIDTH1 0 -8
BITMAP 
18
18
18
3C
3C
18
18
18
ENDCHAR
STARTCHAR SF010000
ENCODING 150
SWIDTH 1000 0
DWIDTH 8 0
BBX 8 8 0 0
VVECTOR 4 8
SWIDTH1 0 -1000
DWIDTH1 0 -8
BITMAP 
00
00
18
3F
3F
18
18
18
ENDCHAR
STARTCHAR SF080000
ENCODING 151
SWIDTH 1000 0
DWIDTH 8 0
BBX 8 8 0 0
VVECTOR 4 8
SWIDTH1 0 -1000
DWIDTH1 0 -8
BITMAP 
18
18
18
3F
3F
18
18
18
ENDCHAR
STARTCHAR uni2574
ENCODING 152
SWIDTH 1000 0
DWIDTH 8 0
BBX 8 8 0 0
VVECTOR 4 8
SWIDTH1 0 -1000
DWIDTH1 0 -8
BITMAP 
00
00
18
FC
FC
18
00
00
ENDCHAR
STARTCHAR SF040000
ENCODING 153
SWIDTH 1000 0
DWIDTH 8 0
BBX 8 8 0 0
VVECTOR 4 8
SWIDTH1 0 -1000
DWIDTH1 0 -8
BITMAP 
18
18
18
FC
FC
18
00
00
ENDCHAR
STARTCHAR SF100000
ENCODING 154
SWIDTH 1000 0
DWIDTH 8 0
BBX 8 8 0 0
VVECTOR 4 8
SWIDTH1 0 -1000
DWIDTH1 0 -8
BITMAP 
00
00
18
FF
FF
18
00
00
ENDCHAR
STARTCHAR SF070000
ENCODING 155
SWIDTH 1000 0
DWIDTH 8 0
BBX 8 8 0 0
VVECTOR 4 8
SWIDTH1 0 -1000
DWIDTH1 0 -8
BITMAP 
18
18
18
FF
FF
18
00
00
ENDCHAR
STARTCHAR SF030000
ENCODING 156
SWIDTH 1000 0
DWIDTH 8 0
BBX 8 8 0 0
VVECTOR 4 8
SWIDTH1 0 -1000
DWIDTH1 0 -8
BITMAP 
00
00
18
FC
FC
18
18
18
ENDCHAR
STARTCHAR SF090000
ENCODING 157
SWIDTH 1000 0
DWIDTH 8 0
BBX 8 8 0 0
VVECTOR 4 8
SWIDTH1 0 -1000
DWIDTH1 0 -8
BITMAP 
18
18
18
FC
FC
18
18
18
ENDCHAR
STARTCHAR SF060000
ENCODING 158
SWIDTH 1000 0
DWIDTH 8 0
BBX 8 8 0 0
VVECTOR 4 8
SWIDTH1 0 -1000
DWIDTH1 0 -8
BITMAP 
00
00
18
FF
FF
18
18
18
ENDCHAR
STARTCHAR SF050000
ENCODING 159
SWIDTH 1000 0
DWIDTH 8 0
BBX 8 8 0 0
VVECTOR 4 8
SWIDTH1 0 -1000
DWIDTH1 0 -8
BITMAP 
18
18
18
FF
FF
18
18
18
ENDCHAR
STARTCHAR ordfeminine
ENCODING 160
SWIDTH 1000 0
DWIDTH 8 0
BBX 8 8 0 0
VVECTOR 4 8
SWIDTH1 0 -1000
DWIDTH1 0 -8
BITMAP 
7C
C6
C6
FE
7E
00
FE
00
ENDCHAR
STARTCHAR ordmasculine
ENCODING 161
SWIDTH 1000 0
DWIDTH 8 0
BBX 8 8 0 0
VVECTOR 4 8
SWIDTH1 0 -1000
DWIDTH1 0 -8
BITMAP 
78
CC
CC
FC
78
00
FC
00
ENDCHAR
STARTCHAR degree
ENCODING 162
SWIDTH 1000 0
DWIDTH 8 0
BBX 8 8 0 0
VVECTOR 4 8
SWIDTH1 0 -1000
DWIDTH1 0 -8
BITMAP 
38
44
38
00
00
00
00
00
ENDCHAR
STARTCHAR sterling
ENCODING 163
SWIDTH 1000 0
DWIDTH 8 0
BBX 8 8 0 0
VVECTOR 4 8
SWIDTH1 0 -1000
DWIDTH1 0 -8
BITMAP 
38
40
70
C0
D0
F8
E8
00
ENDCHAR
STARTCHAR copyright
ENCODING 164
SWIDTH 1000 0
DWIDTH 8 0
BBX 8 8 0 0
VVECTOR 4 8
SWIDTH1 0 -1000
DWIDTH1 0 -8
BITMAP 
38
44
9A
A2
9A
44
38
00
ENDCHAR
STARTCHAR paragraph
ENCODING 165
SWIDTH 1000 0
DWIDTH 8 0
BBX 8 8 0 0
VVECTOR 4 8
SWIDTH1 0 -1000
DWIDTH1 0 -8
BITMAP 
7E
94
94
74
34
34
34
00
ENDCHAR
STARTCHAR section
ENCODING 166
SWIDTH 1000 0
DWIDTH 8 0
BBX 8 8 0 0
VVECTOR 4 8
SWIDTH1 0 -1000
DWIDTH1 0 -8
BITMAP 
1E
20
38
44
38
18
F0
00
ENDCHAR
STARTCHAR dagger
ENCODING 167
SWIDTH 1000 0
DWIDTH 8 0
BBX 8 8 0 0
VVECTOR 4 8
SWIDTH1 0 -1000
DWIDTH1 0 -8
BITMAP 
18
18
66
18
18
18
18
00
ENDCHAR
STARTCHAR onequarter
ENCODING 168
SWIDTH 1000 0
DWIDTH 8 0
BBX 8 8 0 0
VVECTOR 4 8
SWIDTH1 0 -1000
DWIDTH1 0 -8
BITMAP 
40
C0
44
4C
54
1E
04
00
ENDCHAR
STARTCHAR onehalf
ENCODING 169
SWIDTH 1000 0
DWIDTH 8 0
BBX 8 8 0 0
VVECTOR 4 8
SWIDTH1 0 -1000
DWIDTH1 0 -8
BITMAP 
40
C0
4C
52
44
08
1E
00
ENDCHAR
STARTCHAR threequarters
ENCODING 170
SWIDTH 1000 0
DWIDTH 8 0
BBX 8 8 0 0
VVECTOR 4 8
SWIDTH1 0 -1000
DWIDTH1 0 -8
BITMAP 
E0
10
62
16
EA
0F
02
00
ENDCHAR
STARTCHAR guillemotleft
ENCODING 171
SWIDTH 1000 0
DWIDTH 8 0
BBX 8 8 0 0
VVECTOR 4 8
SWIDTH1 0 -1000
DWIDTH1 0 -8
BITMAP 
00
33
66
CC
66
33
00
00
ENDCHAR
STARTCHAR guillemotright
ENCODING 172
SWIDTH 1000 0
DWIDTH 8 0
BBX 8 8 0 0
VVECTOR 4 8
SWIDTH1 0 -1000
DWIDTH1 0 -8
BITMAP 
00
CC
66
33
66
CC
00
00
ENDCHAR
STARTCHAR peseta
ENCODING 173
SWIDTH 1000 0
DWIDTH 8 0
BBX 8 8 0 0
VVECTOR 4 8
SWIDTH1 0 -1000
DWIDTH1 0 -8
BITMAP 
E0
90
94
EE
84
84
83
00
ENDCHAR
STARTCHAR questiondown
ENCODING 174
SWIDTH 1000 0
DWIDTH 8 0
BBX 8 8 0 0
VVECTOR 4 8
SWIDTH1 0 -1000
DWIDTH1 0 -8
BITMAP 
10
00
10
30
60
7E
3C
00
ENDCHAR
STARTCHAR exclamdown
ENCODING 175
SWIDTH 1000 0
DWIDTH 8 0
BBX 8 8 0 0
VVECTOR 4 8
SWIDTH1 0 -1000
DWIDTH1 0 -8
BITMAP 
18
18
00
18
3C
3C
18
00
ENDCHAR
STARTCHAR florin
ENCODING 176
SWIDTH 1000 0
DWIDTH 8 0
BBX 8 8 0 0
VVECTOR 4 8
SWIDTH1 0 -1000
DWIDTH1 0 -8
BITMAP 
0C
12
10
FC
30
30
E0
00
ENDCHAR
STARTCHAR cent
ENCODING 177
SWIDTH 1000 0
DWIDTH 8 0
BBX 8 8 0 0
VVECTOR 4 8
SWIDTH1 0 -1000
DWIDTH1 0 -8
BITMAP 
00
10
7C
D0
D0
FC
78
10
ENDCHAR
STARTCHAR dieresis
ENCODING 178
SWIDTH 1000 0
DWIDTH 8 0
BBX 8 8 0 0
VVECTOR 4 8
SWIDTH1 0 -1000
DWIDTH1 0 -8
BITMAP 
00
66
00
00
00
00
00
00
ENDCHAR
STARTCHAR acute
ENCODING 179
SWIDTH 1000 0
DWIDTH 8 0
BBX 8 8 0 0
VVECTOR 4 8
SWIDTH1 0 -1000
DWIDTH1 0 -8
BITMAP 
0C
18
30
00
00
00
00
00
ENDCHAR
STARTCHAR circumflex
ENCODING 180
SWIDTH 1000 0
DWIDTH 8 0
BBX 8 8 0 0
VVECTOR 4 8
SWIDTH1 0 -1000
DWIDTH1 0 -8
BITMAP 
10
38
6C
C6
00
00
00
00
ENDCHAR
STARTCHAR perthousand
ENCODING 181
SWIDTH 1000 0
DWIDTH 8 0
BBX 8 8 0 0
VVECTOR 4 8
SWIDTH1 0 -1000
DWIDTH1 0 -8
BITMAP 
00
C6
CC
18
20
5B
DB
00
ENDCHAR
STARTCHAR oneeighth
ENCODING 182
SWIDTH 1000 0
DWIDTH 8 0
BBX 8 8 0 0
VVECTOR 4 8
SWIDTH1 0 -1000
DWIDTH1 0 -8
BITMAP 
40
C0
46
49
46
09
06
00
ENDCHAR
STARTCHAR threeeighths
ENCODING 183
SWIDTH 1000 0
DWIDTH 8 0
BBX 8 8 0 0
VVECTOR 4 8
SWIDTH1 0 -1000
DWIDTH1 0 -8
BITMAP 
E0
10
66
19
E6
09
06
00
ENDCHAR
STARTCHAR fiveeighths
ENCODING 184
SWIDTH 1000 0
DWIDTH 8 0
BBX 8 8 0 0
VVECTOR 4 8
SWIDTH1 0 -1000
DWIDTH1 0 -8
BITMAP 
F0
80
E6
19
E6
09
06
00
ENDCHAR
STARTCHAR seveneighths
ENCODING 185
SWIDTH 1000 0
DWIDTH 8 0
BBX 8 8 0 0
VVECTOR 4 8
SWIDTH1 0 -1000
DWIDTH1 0 -8
BITMAP 
F0
10
26
49
86
09
06
00
ENDCHAR
STARTCHAR germandbls
ENCODING 186
SWIDTH 1000 0
DWIDTH 8 0
BBX 8 8 0 0
VVECTOR 4 8
SWIDTH1 0 -1000
DWIDTH1 0 -8
BITMAP 
38
44
44
7C
C6
C6
F8
00
ENDCHAR
STARTCHAR circle
ENCODING 187
SWIDTH 1000 0
DWIDTH 8 0
BBX 8 8 0 0
VVECTOR 4 8
SWIDTH1 0 -1000
DWIDTH1 0 -8
BITMAP 
00
38
44
44
C6
6C
38
00
ENDCHAR
STARTCHAR bullet
ENCODING 188
SWIDTH 1000 0
DWIDTH 8 0
BBX 8 8 0 0
VVECTOR 4 8
SWIDTH1 0 -1000
DWIDTH1 0 -8
BITMAP 
00
38
7C
7C
FE
7C
38
00
ENDCHAR
STARTCHAR yen
ENCODING 189
SWIDTH 1000 0
DWIDTH 8 0
BBX 8 8 0 0
VVECTOR 4 8
SWIDTH1 0 -1000
DWIDTH1 0 -8
BITMAP 
82
44
28
38
FE
38
10
00
ENDCHAR
STARTCHAR registered
ENCODING 190
SWIDTH 1000 0
DWIDTH 8 0
BBX 8 8 0 0
VVECTOR 4 8
SWIDTH1 0 -1000
DWIDTH1 0 -8
BITMAP 
3C
42
B9
A5
B9
A9
66
3C
ENDCHAR
STARTCHAR trademark
ENCODING 191
SWIDTH 1000 0
DWIDTH 8 0
BBX 8 8 0 0
VVECTOR 4 8
SWIDTH1 0 -1000
DWIDTH1 0 -8
BITMAP 
FB
55
51
51
00
00
00
00
ENDCHAR
STARTCHAR Aacute
ENCODING 192
SWIDTH 1000 0
DWIDTH 8 0
BBX 8 8 0 0
VVECTOR 4 8
SWIDTH1 0 -1000
DWIDTH1 0 -8
BITMAP 
0C
30
18
24
24
7E
66
00
ENDCHAR
STARTCHAR Eacute
ENCODING 193
SWIDTH 1000 0
DWIDTH 8 0
BBX 8 8 0 0
VVECTOR 4 8
SWIDTH1 0 -1000
DWIDTH1 0 -8
BITMAP 
0C
30
3E
20
7C
60
3E
00
ENDCHAR
STARTCHAR Iacute
ENCODING 194
SWIDTH 1000 0
DWIDTH 8 0
BBX 8 8 0 0
VVECTOR 4 8
SWIDTH1 0 -1000
DWIDTH1 0 -8
BITMAP 
0C
30
7E
08
18
18
7E
00
ENDCHAR
STARTCHAR Oacute
ENCODING 195
SWIDTH 1000 0
DWIDTH 8 0
BBX 8 8 0 0
VVECTOR 4 8
SWIDTH1 0 -1000
DWIDTH1 0 -8
BITMAP 
0C
30
18
24
66
66
3C
00
ENDCHAR
STARTCHAR Uacute
ENCODING 196
SWIDTH 1000 0
DWIDTH 8 0
BBX 8 8 0 0
VVECTOR 4 8
SWIDTH1 0 -1000
DWIDTH1 0 -8
BITMAP 
0C
30
24
24
66
66
3C
00
ENDCHAR
STARTCHAR Acircumflex
ENCODING 197
SWIDTH 1000 0
DWIDTH 8 0
BBX 8 8 0 0
VVECTOR 4 8
SWIDTH1 0 -1000
DWIDTH1 0 -8
BITMAP 
18
66
18
24
24
7E
66
00
ENDCHAR
STARTCHAR Ecircumflex
ENCODING 198
SWIDTH 1000 0
DWIDTH 8 0
BBX 8 8 0 0
VVECTOR 4 8
SWIDTH1 0 -1000
DWIDTH1 0 -8
BITMAP 
18
66
3E
20
7C
60
3E
00
ENDCHAR
STARTCHAR Icircumflex
ENCODING 199
SWIDTH 1000 0
DWIDTH 8 0
BBX 8 8 0 0
VVECTOR 4 8
SWIDTH1 0 -1000
DWIDTH1 0 -8
BITMAP 
18
66
7E
08
18
18
7E
00
ENDCHAR
STARTCHAR Ocircumflex
ENCODING 200
SWIDTH 1000 0
DWIDTH 8 0
BBX 8 8 0 0
VVECTOR 4 8
SWIDTH1 0 -1000
DWIDTH1 0 -8
BITMAP 
18
66
18
24
66
66
3C
00
ENDCHAR
STARTCHAR Ucircumflex
ENCODING 201
SWIDTH 1000 0
DWIDTH 8 0
BBX 8 8 0 0
VVECTOR 4 8
SWIDTH1 0 -1000
DWIDTH1 0 -8
BITMAP 
18
66
00
24
66
66
3C
00
ENDCHAR
STARTCHAR Agrave
ENCODING 202
SWIDTH 1000 0
DWIDTH 8 0
BBX 8 8 0 0
VVECTOR 4 8
SWIDTH1 0 -1000
DWIDTH1 0 -8
BITMAP 
30
0C
18
24
24
7E
66
00
ENDCHAR
STARTCHAR Egrave
ENCODING 203
SWIDTH 1000 0
DWIDTH 8 0
BBX 8 8 0 0
VVECTOR 4 8
SWIDTH1 0 -1000
DWIDTH1 0 -8
BITMAP 
30
0C
3E
20
7C
60
3E
00
ENDCHAR
STARTCHAR Igrave
ENCODING 204
SWIDTH 1000 0
DWIDTH 8 0
BBX 8 8 0 0
VVECTOR 4 8
SWIDTH1 0 -1000
DWIDTH1 0 -8
BITMAP 
30
0C
7E
08
18
18
7E
00
ENDCHAR
STARTCHAR Ograve
ENCODING 205
SWIDTH 1000 0
DWIDTH 8 0
BBX 8 8 0 0
VVECTOR 4 8
SWIDTH1 0 -1000
DWIDTH1 0 -8
BITMAP 
30
0C
18
24
24
66
3C
00
ENDCHAR
STARTCHAR Ugrave
ENCODING 206
SWIDTH 1000 0
DWIDTH 8 0
BBX 8 8 0 0
VVECTOR 4 8
SWIDTH1 0 -1000
DWIDTH1 0 -8
BITMAP 
30
0C
24
24
66
66
3C
00
ENDCHAR
STARTCHAR Ydieresis
ENCODING 207
SWIDTH 1000 0
DWIDTH 8 0
BBX 8 8 0 0
VVECTOR 4 8
SWIDTH1 0 -1000
DWIDTH1 0 -8
BITMAP 
66
00
82
44
38
38
10
00
ENDCHAR
STARTCHAR Adieresis
ENCODING 208
SWIDTH 1000 0
DWIDTH 8 0
BBX 8 8 0 0
VVECTOR 4 8
SWIDTH1 0 -1000
DWIDTH1 0 -8
BITMAP 
66
00
18
24
24
7E
66
00
ENDCHAR
STARTCHAR Edieresis
ENCODING 209
SWIDTH 1000 0
DWIDTH 8 0
BBX 8 8 0 0
VVECTOR 4 8
SWIDTH1 0 -1000
DWIDTH1 0 -8
BITMAP 
66
00
3E
20
7C
60
3E
00
ENDCHAR
STARTCHAR Idieresis
ENCODING 210
SWIDTH 1000 0
DWIDTH 8 0
BBX 8 8 0 0
VVECTOR 4 8
SWIDTH1 0 -1000
DWIDTH1 0 -8
BITMAP 
66
00
7E
08
18
18
7E
00
ENDCHAR
STARTCHAR Odieresis
ENCODING 211
SWIDTH 1000 0
DWIDTH 8 0
BBX 8 8 0 0
VVECTOR 4 8
SWIDTH1 0 -1000
DWIDTH1 0 -8
BITMAP 
66
00
18
24
24
66
3C
00
ENDCHAR
STARTCHAR Udieresis
ENCODING 212
SWIDTH 1000 0
DWIDTH 8 0
BBX 8 8 0 0
VVECTOR 4 8
SWIDTH1 0 -1000
DWIDTH1 0 -8
BITMAP 
66
00
24
24
66
66
3C
00
ENDCHAR
STARTCHAR Ccedilla
ENCODING 213
SWIDTH 1000 0
DWIDTH 8 0
BBX 8 8 0 0
VVECTOR 4 8
SWIDTH1 0 -1000
DWIDTH1 0 -8
BITMAP 
38
44
C0
C6
FE
7C
30
70
ENDCHAR
STARTCHAR AE
ENCODING 214
SWIDTH 1000 0
DWIDTH 8 0
BBX 8 8 0 0
VVECTOR 4 8
SWIDTH1 0 -1000
DWIDTH1 0 -8
BITMAP 
0E
38
58
FE
D8
D8
4E
00
ENDCHAR
STARTCHAR Aring
ENCODING 215
SWIDTH 1000 0
DWIDTH 8 0
BBX 8 8 0 0
VVECTOR 4 8
SWIDTH1 0 -1000
DWIDTH1 0 -8
BITMAP 
18
00
18
24
24
7E
66
00
ENDCHAR
STARTCHAR Oslash
ENCODING 216
SWIDTH 1000 0
DWIDTH 8 0
BBX 8 8 0 0
VVECTOR 4 8
SWIDTH1 0 -1000
DWIDTH1 0 -8
BITMAP 
3C
4C
54
D6
E6
FE
FC
00
ENDCHAR
STARTCHAR Ntilde
ENCODING 217
SWIDTH 1000 0
DWIDTH 8 0
BBX 8 8 0 0
VVECTOR 4 8
SWIDTH1 0 -1000
DWIDTH1 0 -8
BITMAP 
32
4C
00
24
76
6E
66
00
ENDCHAR
STARTCHAR Atilde
ENCODING 218
SWIDTH 1000 0
DWIDTH 8 0
BBX 8 8 0 0
VVECTOR 4 8
SWIDTH1 0 -1000
DWIDTH1 0 -8
BITMAP 
32
4C
00
18
24
7E
66
00
ENDCHAR
STARTCHAR Otilde
ENCODING 219
SWIDTH 1000 0
DWIDTH 8 0
BBX 8 8 0 0
VVECTOR 4 8
SWIDTH1 0 -1000
DWIDTH1 0 -8
BITMAP 
32
4C
18
24
24
66
3C
00
ENDCHAR
STARTCHAR greaterequal
ENCODING 220
SWIDTH 1000 0
DWIDTH 8 0
BBX 8 8 0 0
VVECTOR 4 8
SWIDTH1 0 -1000
DWIDTH1 0 -8
BITMAP 
C0
30
0C
30
CC
30
C0
00
ENDCHAR
STARTCHAR lessequal
ENCODING 221
SWIDTH 1000 0
DWIDTH 8 0
BBX 8 8 0 0
VVECTOR 4 8
SWIDTH1 0 -1000
DWIDTH1 0 -8
BITMAP 
06
18
60
18
66
18
06
00
ENDCHAR
STARTCHAR notequal
ENCODING 222
SWIDTH 1000 0
DWIDTH 8 0
BBX 8 8 0 0
VVECTOR 4 8
SWIDTH1 0 -1000
DWIDTH1 0 -8
BITMAP 
06
0C
7E
18
7E
30
60
00
ENDCHAR
STARTCHAR uni2243
ENCODING 223
SWIDTH 1000 0
DWIDTH 8 0
BBX 8 8 0 0
VVECTOR 4 8
SWIDTH1 0 -1000
DWIDTH1 0 -8
BITMAP 
00
00
32
4C
00
7E
00
00
ENDCHAR
STARTCHAR aacute
ENCODING 224
SWIDTH 1000 0
DWIDTH 8 0
BBX 8 8 0 0
VVECTOR 4 8
SWIDTH1 0 -1000
DWIDTH1 0 -8
BITMAP 
0C
30
7C
C6
C6
FE
7E
00
ENDCHAR
STARTCHAR eacute
ENCODING 225
SWIDTH 1000 0
DWIDTH 8 0
BBX 8 8 0 0
VVECTOR 4 8
SWIDTH1 0 -1000
DWIDTH1 0 -8
BITMAP 
0C
30
3C
62
7C
60
3E
00
ENDCHAR
STARTCHAR iacute
ENCODING 226
SWIDTH 1000 0
DWIDTH 8 0
BBX 8 8 0 0
VVECTOR 4 8
SWIDTH1 0 -1000
DWIDTH1 0 -8
BITMAP 
0C
30
00
18
18
18
18
00
ENDCHAR
STARTCHAR oacute
ENCODING 227
SWIDTH 1000 0
DWIDTH 8 0
BBX 8 8 0 0
VVECTOR 4 8
SWIDTH1 0 -1000
DWIDTH1 0 -8
BITMAP 
0C
30
3C
66
66
7E
3C
00
ENDCHAR
STARTCHAR uacute
ENCODING 228
SWIDTH 1000 0
DWIDTH 8 0
BBX 8 8 0 0
VVECTOR 4 8
SWIDTH1 0 -1000
DWIDTH1 0 -8
BITMAP 
18
60
44
C6
C6
FE
7C
00
ENDCHAR
STARTCHAR acircumflex
ENCODING 229
SWIDTH 1000 0
DWIDTH 8 0
BBX 8 8 0 0
VVECTOR 4 8
SWIDTH1 0 -1000
DWIDTH1 0 -8
BITMAP 
18
66
7C
C6
C6
FE
7E
00
ENDCHAR
STARTCHAR ecircumflex
ENCODING 230
SWIDTH 1000 0
DWIDTH 8 0
BBX 8 8 0 0
VVECTOR 4 8
SWIDTH1 0 -1000
DWIDTH1 0 -8
BITMAP 
18
66
3C
62
7C
60
3E
00
ENDCHAR
STARTCHAR icircumflex
ENCODING 231
SWIDTH 1000 0
DWIDTH 8 0
BBX 8 8 0 0
VVECTOR 4 8
SWIDTH1 0 -1000
DWIDTH1 0 -8
BITMAP 
18
66
00
18
18
18
18
00
ENDCHAR
STARTCHAR ocircumflex
ENCODING 232
SWIDTH 1000 0
DWIDTH 8 0
BBX 8 8 0 0
VVECTOR 4 8
SWIDTH1 0 -1000
DWIDTH1 0 -8
BITMAP 
18
66
3C
66
66
7E
3C
00
ENDCHAR
STARTCHAR ucircumflex
ENCODING 233
SWIDTH 1000 0
DWIDTH 8 0
BBX 8 8 0 0
VVECTOR 4 8
SWIDTH1 0 -1000
DWIDTH1 0 -8
BITMAP 
18
66
00
44
C6
FE
7C
00
ENDCHAR
STARTCHAR agrave
ENCODING 234
SWIDTH 1000 0
DWIDTH 8 0
BBX 8 8 0 0
VVECTOR 4 8
SWIDTH1 0 -1000
DWIDTH1 0 -8
BITMAP 
30
0C
7C
C6
C6
FE
7E
00
ENDCHAR
STARTCHAR egrave
ENCODING 235
SWIDTH 1000 0
DWIDTH 8 0
BBX 8 8 0 0
VVECTOR 4 8
SWIDTH1 0 -1000
DWIDTH1 0 -8
BITMAP 
30
0C
3C
62
7C
60
3E
00
ENDCHAR
STARTCHAR igrave
ENCODING 236
SWIDTH 1000 0
DWIDTH 8 0
BBX 8 8 0 0
VVECTOR 4 8
SWIDTH1 0 -1000
DWIDTH1 0 -8
BITMAP 
30
0C
00
18
18
18
18
00
ENDCHAR
STARTCHAR ograve
ENCODING 237
SWIDTH 1000 0
DWIDTH 8 0
BBX 8 8 0 0
VVECTOR 4 8
SWIDTH1 0 -1000
DWIDTH1 0 -8
BITMAP 
30
0C
3C
66
66
7E
3C
00
ENDCHAR
STARTCHAR ugrave
ENCODING 238
SWIDTH 1000 0
DWIDTH 8 0
BBX 8 8 0 0
VVECTOR 4 8
SWIDTH1 0 -1000
DWIDTH1 0 -8
BITMAP 
30
0C
44
C6
C6
FE
7C
00
ENDCHAR
STARTCHAR ydieresis
ENCODING 239
SWIDTH 1000 0
DWIDTH 8 0
BBX 8 8 0 0
VVECTOR 4 8
SWIDTH1 0 -1000
DWIDTH1 0 -8
BITMAP 
66
00
44
44
44
3E
06
FC
ENDCHAR
STARTCHAR adieresis
ENCODING 240
SWIDTH 1000 0
DWIDTH 8 0
BBX 8 8 0 0
VVECTOR 4 8
SWIDTH1 0 -1000
DWIDTH1 0 -8
BITMAP 
66
00
7C
C6
C6
FE
7E
00
ENDCHAR
STARTCHAR edieresis
ENCODING 241
SWIDTH 1000 0
DWIDTH 8 0
BBX 8 8 0 0
VVECTOR 4 8
SWIDTH1 0 -1000
DWIDTH1 0 -8
BITMAP 
66
00
3C
62
7C
60
3E
00
ENDCHAR
STARTCHAR idieresis
ENCODING 242
SWIDTH 1000 0
DWIDTH 8 0
BBX 8 8 0 0
VVECTOR 4 8
SWIDTH1 0 -1000
DWIDTH1 0 -8
BITMAP 
66
00
18
18
18
18
18
00
ENDCHAR
STARTCHAR odieresis
ENCODING 243
SWIDTH 1000 0
DWIDTH 8 0
BBX 8 8 0 0
VVECTOR 4 8
SWIDTH1 0 -1000
DWIDTH1 0 -8
BITMAP 
66
00
3C
66
66
7E
3C
00
ENDCHAR
STARTCHAR udieresis
ENCODING 244
SWIDTH 1000 0
DWIDTH 8 0
BBX 8 8 0 0
VVECTOR 4 8
SWIDTH1 0 -1000
DWIDTH1 0 -8
BITMAP 
66
00
44
C6
C6
FE
7C
00
ENDCHAR
STARTCHAR ccedilla
ENCODING 245
SWIDTH 1000 0
DWIDTH 8 0
BBX 8 8 0 0
VVECTOR 4 8
SWIDTH1 0 -1000
DWIDTH1 0 -8
BITMAP 
00
3C
40
C0
FC
78
10
30
ENDCHAR
STARTCHAR ae
ENCODING 246
SWIDTH 1000 0
DWIDTH 8 0
BBX 8 8 0 0
VVECTOR 4 8
SWIDTH1 0 -1000
DWIDTH1 0 -8
BITMAP 
00
00
2C
5A
DC
D8
6E
00
ENDCHAR
STARTCHAR aring
ENCODING 247
SWIDTH 1000 0
DWIDTH 8 0
BBX 8 8 0 0
VVECTOR 4 8
SWIDTH1 0 -1000
DWIDTH1 0 -8
BITMAP 
18
00
7C
C6
C6
FE
7E
00
ENDCHAR
STARTCHAR oslash
ENCODING 248
SWIDTH 1000 0
DWIDTH 8 0
BBX 8 8 0 0
VVECTOR 4 8
SWIDTH1 0 -1000
DWIDTH1 0 -8
BITMAP 
00
00
3C
6E
76
7E
BC
00
ENDCHAR
STARTCHAR ntilde
ENCODING 249
SWIDTH 1000 0
DWIDTH 8 0
BBX 8 8 0 0
VVECTOR 4 8
SWIDTH1 0 -1000
DWIDTH1 0 -8
BITMAP 
32
CC
00
FC
C6
C6
C6
00
ENDCHAR
STARTCHAR atilde
ENCODING 250
SWIDTH 1000 0
DWIDTH 8 0
BBX 8 8 0 0
VVECTOR 4 8
SWIDTH1 0 -1000
DWIDTH1 0 -8
BITMAP 
32
CC
7C
C6
C6
FE
7E
00
ENDCHAR
STARTCHAR otilde
ENCODING 251
SWIDTH 1000 0
DWIDTH 8 0
BBX 8 8 0 0
VVECTOR 4 8
SWIDTH1 0 -1000
DWIDTH1 0 -8
BITMAP 
32
CC
3C
66
66
7E
3C
00
ENDCHAR
STARTCHAR arrowdblright
ENCODING 252
SWIDTH 1000 0
DWIDTH 8 0
BBX 8 8 0 0
VVECTOR 4 8
SWIDTH1 0 -1000
DWIDTH1 0 -8
BITMAP 
00
0C
FE
06
FE
0C
00
00
ENDCHAR
STARTCHAR arrowdblleft
ENCODING 253
SWIDTH 1000 0
DWIDTH 8 0
BBX 8 8 0 0
VVECTOR 4 8
SWIDTH1 0 -1000
DWIDTH1 0 -8
BITMAP 
00
30
7F
60
7F
30
00
00
ENDCHAR
STARTCHAR arrowdblboth
ENCODING 254
SWIDTH 1000 0
DWIDTH 8 0
BBX 8 8 0 0
VVECTOR 4 8
SWIDTH1 0 -1000
DWIDTH1 0 -8
BITMAP 
00
6C
FE
82
FE
6C
00
00
ENDCHAR
STARTCHAR equivalence
ENCODING 255
SWIDTH 1000 0
DWIDTH 8 0
BBX 8 8 0 0
VVECTOR 4 8
SWIDTH1 0 -1000
DWIDTH1 0 -8
BITMAP 
00
7E
00
7E
00
7E
00
00
ENDCHAR
ENDFONT
